<svg xmlns="http://www.w3.org/2000/svg" viewBox="0 0 1080 1080" width="1080" height="1080"><g transform="translate(794.0 230.0) rotate(-180.0 45.0 -33.0) translate(18.10609513382568 -19.0) scale(0.33871514056678337 -0.3383921246923708)"><svg width="212.255" height="138.892" viewBox="53.455 56.148 212.255 138.892"><path d="M262.71 192.04s-27.86-65.56-90.86-50.77a19.882 19.882 0 0 1-24.26-17.28c-4.95-45.57-35-58.75-66.9-50.39-39.89 10.47-50 56-41.66 77.52 8.36 21.73 27.06 40.92 57 40.92z" fill="#fff"/><path d="M262.71 195.04H96.03c-27.125 0-49.479-16.016-59.8-42.843-5.288-13.644-3.291-33.686 4.971-49.866 5.778-11.31 17.185-25.979 38.727-31.631 17.845-4.674 34.469-2.567 46.815 5.938 13.238 9.117 21.478 25.38 23.829 47.03a17.008 17.008 0 0 0 .344 2.047 16.881 16.881 0 0 0 20.256 12.635c26.8-6.292 51.645.837 71.833 20.618a109.491 109.491 0 0 1 22.466 31.9 3 3 0 0 1-2.761 4.173zM98.174 74.212A66.086 66.086 0 0 0 81.45 76.5c-19.393 5.09-29.685 18.34-34.9 28.558-7.415 14.519-9.355 33.013-4.719 44.976 4.514 11.732 18.825 39 54.2 39H257.9a107.3 107.3 0 0 0-19.231-25.922c-18.885-18.429-41.133-24.795-66.133-18.928a22.873 22.873 0 0 1-27.929-19.884c-2.157-19.852-9.511-34.63-21.267-42.727-7.103-4.889-15.632-7.361-25.166-7.361z" fill="#222433"/><circle cx="27.39" cy="27.39" fill="#fff" r="24.39"/><path d="M27.39 54.78a27.39 27.39 0 1 1 27.39-27.39 27.421 27.421 0 0 1-27.39 27.39zm0-48.78a21.39 21.39 0 1 0 21.39 21.39A21.415 21.415 0 0 0 27.39 6z" fill="#222433"/></svg></g><g transform="translate(917.0 230.0) rotate(-180.0 -56.5 -41.5) translate(-0.0 -25.434764413162476) scale(-0.4252756764894058 -0.4255537325676784)"><svg width="264.693" height="135.271" viewBox="0 59.769 264.693 135.271"><path d="M262.71 192.04s-27.86-65.56-90.86-50.77a19.882 19.882 0 0 1-24.26-17.28c-4.95-45.57-35-58.75-66.9-50.39-39.89 10.47-50 56-41.66 77.52 8.36 21.73 27.06 40.92 57 40.92z" fill="#fff"/><path d="M262.71 195.04H96.03c-27.125 0-49.479-16.016-59.8-42.843-5.288-13.644-3.291-33.686 4.971-49.866 5.778-11.31 17.185-25.979 38.727-31.631 17.845-4.674 34.469-2.567 46.815 5.938 13.238 9.117 21.478 25.38 23.829 47.03a17.008 17.008 0 0 0 .344 2.047 16.881 16.881 0 0 0 20.256 12.635c26.8-6.292 51.645.837 71.833 20.618a109.491 109.491 0 0 1 22.466 31.9 3 3 0 0 1-2.761 4.173zM98.174 74.212A66.086 66.086 0 0 0 81.45 76.5c-19.393 5.09-29.685 18.34-34.9 28.558-7.415 14.519-9.355 33.013-4.719 44.976 4.514 11.732 18.825 39 54.2 39H257.9a107.3 107.3 0 0 0-19.231-25.922c-18.885-18.429-41.133-24.795-66.133-18.928a22.873 22.873 0 0 1-27.929-19.884c-2.157-19.852-9.511-34.63-21.267-42.727-7.103-4.889-15.632-7.361-25.166-7.361z" fill="#222433"/><circle cx="27.39" cy="27.39" fill="#fff" r="24.39"/><path d="M27.39 54.78a27.39 27.39 0 1 1 27.39-27.39 27.421 27.421 0 0 1-27.39 27.39zm0-48.78a21.39 21.39 0 1 0 21.39 21.39A21.415 21.415 0 0 0 27.39 6z" fill="#222433"/></svg></g><g transform="translate(525.0 518.0) rotate(-13.410041818471676 -38.5 42.0) translate(-0.0 0.0) scale(-1.0261330774663842 0.9967960128159488)"><svg width="75.039" height="63.202" viewBox="0 0 75.039 63.202"><path d="M20.739 84.27.679 26.7C-1.53 20.346 1.83 13.405 8.184 11.196c.137-.048.276-.093.415-.136 6.411-1.987 13.221 1.592 15.22 8l4.25 13.69V10.82C28.063 4.85 32.898.006 38.869 0h.04c5.97-.005 10.814 4.83 10.82 10.8V46l3.37-4.58a12.16 12.16 0 0 1 15.75-3.38c5.844 3.287 7.917 10.689 4.63 16.533l-.01.017-16.73 29.68z" fill="#82B1FF"/></svg></g><g transform="translate(417.0 102.0) rotate(0.0 114.0 222.5) scale(0.45726112618602105 0.4559178651159312)"><svg width="498.621" height="976.053" viewBox="0 0 498.621 976.053"><path d="m292.129 303.294 12.202 669.759-54.75-1 13.67-668.31" fill="#fff"/><path d="M304.331 976.053h-.055l-54.75-1a3 3 0 0 1-2.944-3.061l13.67-668.31c.034-1.656 1.408-3.001 3.061-2.938a3 3 0 0 1 2.938 3.061l-13.609 665.304 48.633.889-12.145-666.65a3 3 0 0 1 2.945-3.054c1.641-.042 3.024 1.288 3.054 2.945l12.201 669.76a3 3 0 0 1-2.999 3.054z" fill="#222433"/><path d="m263.131 309.616.12-5.873" fill="#fff"/><path d="M263.132 312.616h-.063a3 3 0 0 1-2.938-3.061l.12-5.873c.034-1.656 1.41-2.984 3.061-2.938a3 3 0 0 1 2.938 3.061l-.12 5.873a3 3 0 0 1-2.998 2.938z" fill="#222433"/><path d="M184.174 290.147a49.239 49.239 0 0 1 46.447-.498l12.488 6.5 14.305-5.683c.879-5.361 3.869-10.362 8.739-13.624a20.264 20.264 0 0 1 7.727-3.115L331.842 0l3.267 2.686a20 20 0 0 1 7.323 16.759l-12.14 197.321a49.21 49.21 0 0 1-24.348 39.52l-12.122 7.058-2.867 15.187a20.333 20.333 0 0 1 3.43 3.897c3.864 5.77 4.377 12.798 2.008 18.804L498.62 494.607l-4.005 1.37a20 20 0 0 1-18.053-2.606L315.14 379.181a49.201 49.201 0 0 1-20.787-41.502l.379-14.082-11.39-10.358a20.355 20.355 0 0 1-20.856-5.76L0 404.466l.526-4.192a20 20 0 0 1 10.261-15.103z" fill="#82b1ff"/></svg></g><g transform="translate(98.0 941.0) rotate(0.0 172.5 1.5) scale(0.40276589261677587 0.5)"><svg width="856.577" height="6" viewBox="0 0 856.577 6"><path d="M853.577 6H3a3 3 0 1 1 0-6h850.577a3 3 0 1 1 0 6z" fill="#222433"/></svg></g><g transform="translate(447.0 488.0) rotate(0.0 300.5 228.0) scale(0.5493601462522852 0.5500603136308806)"><svg width="1094" height="829" viewBox="0 0 1094 829"><path d="M519.8 826H3V197.5L265.8 3l254 194.5z" fill="#fff"/><path d="M519.8 829H3c-1.7 0-3-1.3-3-3V197.5c0-1 .5-1.8 1.2-2.4L264.1.6c1.1-.8 2.5-.8 3.6 0l254 194.5c.7.6 1.2 1.4 1.2 2.4V826c-.1 1.6-1.4 3-3.1 3zM6 823h510.8V199L265.8 6.8 6 199z" fill="#222433"/><path d="M1091 826H513.1V190.8L815.2 4.6 1091 193.5z" fill="#fff"/><path d="M1091 829H513.1c-1.7 0-3-1.3-3-3V190.8c0-1 .5-2 1.4-2.6L813.6 2c1-.6 2.3-.6 3.3.1L1092.7 191c.8.6 1.3 1.5 1.3 2.5V826c0 1.6-1.3 3-3 3zm-574.9-6H1088V195L815.1 8.1l-299 184.3z" fill="#222433"/><path d="M918.3 610.8h-226c-1.7 0-3-1.3-3-3V401.2c0-1.7 1.3-3 3-3h226c1.7 0 3 1.3 3 3v206.6c0 1.7-1.3 3-3 3zm-223-6h220V404.2h-220z" fill="#222433"/><path d="M918.3 467.8h-226c-1.7 0-3-1.3-3-3s1.3-3 3-3h226c1.7 0 3 1.3 3 3s-1.3 3-3 3z" fill="#222433"/><path d="M805.3 607.2c-1.7 0-3-1.3-3-3V464.8c0-1.7 1.3-3 3-3s3 1.3 3 3v139.4c0 1.6-1.3 3-3 3z" fill="#222433"/><path d="m266.4 3 247.7 188.8h576.6L823.2 3z" fill="#fff"/><g fill="#222433"><path d="M1090.7 194.8H514.1c-.7 0-1.3-.2-1.8-.6L264.6 5.4c-1-.8-1.4-2.1-1-3.3s1.6-2 2.8-2h556.8c.6 0 1.2.2 1.7.5l267.5 188.8c1.1.8 1.5 2.1 1.1 3.4s-1.5 2-2.8 2zm-575.6-6h566.1L822.2 6H275.3zM356.5 824.9c-1.7 0-3-1.3-3-3V506.8H155.9V822c0 1.7-1.3 3-3 3s-3-1.3-3-3V503.8c0-1.7 1.3-3 3-3h203.6c1.7 0 3 1.3 3 3V822c0 1.6-1.4 2.9-3 2.9z"/><path d="M303.2 686.4c-12.1 0-22-9.9-22-22s9.9-22 22-22 22 9.9 22 22-9.9 22-22 22zm0-37.9c-8.8 0-16 7.2-16 16s7.2 16 16 16 16-7.2 16-16-7.2-16-16-16zm645.6-453.7c-.6 0-1.2-.2-1.7-.6L682.7 5.4c-1.3-1-1.7-2.8-.7-4.2 1-1.3 2.8-1.7 4.2-.7l264.3 188.8c1.3 1 1.7 2.8.7 4.2-.6.8-1.5 1.3-2.4 1.3zm-141.9 0c-.6 0-1.2-.2-1.8-.6L543.5 5.4c-1.3-1-1.6-2.8-.7-4.2 1-1.3 2.8-1.6 4.2-.7l261.6 188.8c1.3 1 1.6 2.8.7 4.2-.6.8-1.5 1.3-2.4 1.3zm-142 0c-.6 0-1.2-.2-1.8-.6L404.3 5.4c-1.3-1-1.6-2.9-.7-4.2 1-1.3 2.9-1.6 4.2-.7l258.9 188.8c1.3 1 1.6 2.9.7 4.2-.6.8-1.5 1.3-2.5 1.3zM254.7 351.2c-48.9 0-88.6-39.7-88.6-88.6s39.7-88.6 88.6-88.6 88.6 39.7 88.6 88.6-39.8 88.6-88.6 88.6zm0-171.2c-45.5 0-82.6 37.1-82.6 82.6s37.1 82.6 82.6 82.6 82.6-37.1 82.6-82.6-37.1-82.6-82.6-82.6z"/><path d="M167.8 259.6h174v6h-174z"/><path d="M251.7 262.6h6v85.6h-6zM599.8 318h-86.7c-1.7 0-3-1.3-3-3v-57.8c0-1.7 1.3-3 3-3h86.7c1.7 0 3 1.3 3 3V315c0 1.7-1.3 3-3 3zm-83.7-6h80.7v-51.8h-80.7zm532.8 453.2h-86.7c-1.7 0-3-1.3-3-3v-57.8c0-1.7 1.3-3 3-3h86.7c1.7 0 3 1.3 3 3v57.8c0 1.7-1.3 3-3 3zm-83.7-6h80.7v-51.8h-80.7zM89.7 347H3c-1.7 0-3-1.3-3-3v-57.8c0-1.7 1.3-3 3-3h86.7c1.7 0 3 1.3 3 3V344c0 1.6-1.3 3-3 3zM6 341h80.7v-51.8H6z"/><path d="M133.1 404.8H46.4c-1.7 0-3-1.3-3-3V344c0-1.7 1.3-3 3-3h86.7c1.7 0 3 1.3 3 3v57.8c0 1.6-1.3 3-3 3zm-83.7-6h80.7V347H49.4z"/></g></svg></g><g transform="translate(907.0 350.0) rotate(0.0 -161.5 70.5) scale(-0.48481755549885175 0.48382115773942286)"><svg width="666.23" height="291.43" viewBox="0 0 666.23 291.43"><path d="M20.089 223.023v65.407H648.47V28.679" fill="#fff"/><path d="M648.47 291.43H20.089a3 3 0 0 1-3-3v-65.407a3 3 0 1 1 6 0v62.407H645.47V28.679a3 3 0 1 1 6 0V288.43a3 3 0 0 1-3 3z" fill="#222433"/><path d="M538.25 220.43 663.23 3H127.99L3 220.43z" fill="#fff"/><g fill="#222433"><path d="M538.25 223.43H3a3.001 3.001 0 0 1-2.601-4.496l124.99-217.43A3.002 3.002 0 0 1 127.99 0h535.24a3.001 3.001 0 0 1 2.601 4.496l-124.98 217.43a3 3 0 0 1-2.601 1.504zm-530.065-6h528.329L658.046 6h-528.32z"/><path d="M359.727 223.43a3 3 0 0 1-2.598-4.495L482.075 1.505a3 3 0 1 1 5.202 2.99l-124.946 217.43a2.998 2.998 0 0 1-2.604 1.505zm-177.739-.819a3 3 0 0 1-2.598-4.495L303.799 1.62a3 3 0 1 1 5.202 2.99L184.592 221.105a3 3 0 0 1-2.604 1.506z"/><path d="M600.737 114.72H65.492a3 3 0 1 1 0-6h535.245a3 3 0 1 1 0 6zm-81.395 176.71a3 3 0 0 1-3-3v-68a3 3 0 1 1 6 0v68a3 3 0 0 1-3 3z"/></g></svg></g><g transform="translate(644.0 498.0) rotate(-180.0 10.5 -38.0) scale(0.5 -0.5235602094240838)"><svg width="42" height="145.16" viewBox="0 0 42 145.16"><path d="M21 145.16a3 3 0 0 1-3-3V21a3 3 0 1 1 6 0v121.16a3 3 0 0 1-3 3z" fill="#222433"/><circle cx="21" cy="21" fill="#82b1ff" r="21"/></svg></g><g transform="translate(40.0 473.0) rotate(0.0 233.0 234.5) scale(0.4737144396496953 0.47378905981662645)"><svg width="983.715" height="989.892" viewBox="0 0 983.715 989.892"><path d="M579.74 361.163a847.084 847.084 0 0 0-15.725 14.729c-4.1 3.95-10.626 10.16-15.038 16.348l57 81a36.773 36.773 0 0 0 9.938-3.547l10-5.4a22.59 22.59 0 0 0 9.9-11c2.9-7 7.4-18.4 12.3-32.4 2.008-5.754 1.948-10.788.606-14.775 3.179-5.428 9.256-1.877 15.256-11.877 6.688-11.148 4-15 4-21z" fill="#fff"/><path d="M605.976 476.24a3 3 0 0 1-2.453-1.274l-57-81a3 3 0 0 1 .011-3.469c4.414-6.19 10.753-12.292 14.947-16.33l.454-.435a847.123 847.123 0 0 1 15.785-14.786 3 3 0 0 1 2.427-.755l88.237 12.076a3 3 0 0 1 2.593 2.973 31.629 31.629 0 0 0 .25 3.477c.486 4.473 1.037 9.542-4.678 19.067-4 6.659-8.278 8.223-11.4 9.366a8.739 8.739 0 0 0-3.125 1.567 26.491 26.491 0 0 1-1.073 15.163c-5.347 15.28-10.04 26.958-12.361 32.561a25.671 25.671 0 0 1-11.234 12.485l-10.011 5.406c-2.44 1.316-7.618 3.459-10.989 3.884a2.966 2.966 0 0 1-.38.024zm-53.3-83.952L607.3 469.9a39.606 39.606 0 0 0 7.195-2.85l10-5.4a19.618 19.618 0 0 0 8.565-9.535c2.286-5.518 6.931-17.08 12.229-32.217 1.636-4.685 1.841-9.122.594-12.827a3 3 0 0 1 .255-2.474c1.9-3.237 4.584-4.22 6.955-5.086 2.784-1.018 5.413-1.979 8.317-6.818 4.677-7.794 4.3-11.286 3.858-15.33-.053-.489-.107-.984-.154-1.491l-84.382-11.548a867.562 867.562 0 0 0-14.634 13.73l-.449.433a135.785 135.785 0 0 0-12.969 13.801z" fill="#222433"/><path d="M609.615 443.392c5.1-29.9 28.4-30.8 45.2-40.3 8.928-5.067 14.427-16.8 13.636-28.218" fill="#fff"/><path d="M609.619 446.392a3 3 0 0 1-2.961-3.5c4.177-24.488 20.217-31.024 34.369-36.791a106.953 106.953 0 0 0 12.311-5.616c7.861-4.461 12.847-14.907 12.12-25.4a3 3 0 1 1 5.986-.414c.88 12.711-5.349 25.473-15.149 31.035a113.284 113.284 0 0 1-13 5.952c-13.938 5.679-27.1 11.044-30.719 32.242a3 3 0 0 1-2.957 2.492z" fill="#222433"/><path d="M609.615 443.392c5.1-29.9 28.4-30.8 45.2-40.3" fill="#fff"/><path d="M609.619 446.392a3 3 0 0 1-2.961-3.5c4.177-24.488 20.217-31.024 34.369-36.791a106.953 106.953 0 0 0 12.311-5.616 3 3 0 1 1 2.953 5.222 113.078 113.078 0 0 1-13 5.951c-13.938 5.679-27.1 11.044-30.719 32.243a3 3 0 0 1-2.953 2.491z" fill="#222433"/><path d="m488.977 273.24 95.438-3.448-13.9 90.1 108.7 16.8 23.9-154.8a55.227 55.227 0 0 0-55.6-63.4l-181.1 3.664-107.806 5.229c-6.191 3.184-29.261-.793-39.634 10.855-31.392 35.246-107.562 153.152-107.562 153.152l-89.6-22.8a54.743 54.743 0 0 0-22.927-.912l-33.909 85.56c5 14 18.113 19.012 29.638 21.952l123 31.3a57.569 57.569 0 0 0 13.6 1.7 54.882 54.882 0 0 0 42-19.5l26.122-30.847 195.64-79.605z" fill="#fff"/><g fill="#5a38fd"><path d="M153.315 424.292h-20.941l11.789 3h9.152zm106.2 3h16.886l2.54-3h-19.426zm-103.2-3h31.399v3h-31.399zm68.8 0h31.4v3h-31.4zm-34.4 0h31.4v3h-31.4zm-68.8-32h31.4v3h-31.4zm34.4 0h31.399v3h-31.399zm68.8 0h31.4v3h-31.4zm76.222 0h-7.422v3h7.35a5.751 5.751 0 0 1 .072-3zm-41.822 0h31.399v3h-31.399zm-68.8 0h31.4v3h-31.4zm68.8-32h31.399v3h-31.399zm378.5 0h31.399v3h-31.399zm-481.7 0h31.399v3h-31.399zm68.8 0h31.4v3h-31.4zm447.3 3h9.869l.463-3h-10.332zm-362.524-3h-15.976v3h15.274a4.663 4.663 0 0 1 .702-3zm293.724 0h31.4v3h-31.4zm-3 0h-26.513l19.41 3h7.103zm-466.315 0a5.751 5.751 0 0 1-.189 3h19.2v-3zm56.415 0h31.4v3h-31.4zm0-29h22.306l-11.789-3h-10.517zm31.4-3h-6.071l-2.544 3h8.615zm95.327.136.032-.136h-23.559v3h23.715a4.945 4.945 0 0 1-.188-2.864zm354.973 2.864h14.809l.464-3h-15.273zm-547.396-3a7.048 7.048 0 0 1 1.249 3h27.047v-3zm478.596 0h31.4v3h-31.4zm-3 0H576.39l-.463 3h24.688zm-375.5 0h31.4v3h-31.4zm-68.8 0h31.399v3h-31.399zm481.7 0h31.399v3h-31.399zm-378.5 0h31.399v3h-31.399zm34.4-32h31.5v3h-31.5zm378.5 3h19.75l.463-3h-20.213zm-329.615-3h-14.385v3h10.375a15.207 15.207 0 0 1 4.01-3zm260.815 0h31.4v3h-31.4zm-347.1 0-17.538-.052-3 3 20.538.052zm381.5 0h31.399v3h-31.399zm-37.4 0h-19.288l-.463 3h19.751zm-341.1 0h31.399v3h-31.399zm275.3-32h31.399v3h-31.399zm-34.838 2.948 31.838.052v-3h-31.4zm-206.062-2.948h31.5v3h-31.5zm344.1 0h31.399v3h-31.399zm-34.4 0h31.4v3h-31.4zm-259.088 0h-16.112v3h15.545a7.943 7.943 0 0 1 .567-3zm116.45-.052c-.214 1.087 1 3 1 3h38v-3zm108.238.052h31.4v3h-31.4zm-278.3 0-31.938-.052-2 3 33.938.052zm381.5 3h24.69l.464-3h-25.154zm-137.6-35h31.399v3h-31.399zm103.2 0h31.399v3h-31.399zm-215.13 0h-25.67v3h25.5a5.142 5.142 0 0 1 .17-3zm-97.47 0-47.438-.052-1 3 48.438.052zm243.8 0h31.4v3h-31.4zm103.2 3h29.631l.463-3h-30.094zm-68.8-3h31.4v3h-31.4z"/><path d="M420.977 232.266h110.839v3H420.977zm-94 2.974 32.838.052v-3l-32.838-.052zm35.838-2.948h31.399v3h-31.399zm0-32h31.399v3h-31.399zm123.162-.052h-90v3h76c-.703-.889 14.05-1.94 14-3zm-187 3 60.838.052v-3l-58.838-.052zm235.838-2.948h31.399v3h-31.399zm137.6 3h31.291q-.291-1.509-.666-3h-30.625zm-172-3h31.4v3h-31.4z"/><path d="M472.251 200.292a4.11 4.11 0 0 1-.221.776 12.41 12.41 0 0 1-1.113 2.224h26.5v-3zm165.764 0h31.399v3h-31.399zm-34.4 0h31.4v3h-31.4zm-34.4 0h31.4v3h-31.4zm0-32h31.4v3h-31.4zm34.4 0h31.4v3h-31.4zm-103.2 0h31.4v3h-31.4zm34.4 0h31.399v3h-31.399zm137.6 3h12.429a55.488 55.488 0 0 0-3.969-3h-8.46zm-34.4-3h31.399v3h-31.399zm-217.038-.052c.566 1-.487 2 0 3l76.438.052v-3zM84.515 399.56v10.96q1.471.777 3 1.466V399.4q-1.497.11-3 .16zm35.863-76.734a31.041 31.041 0 0 1 1.537 2.174v-16.842c-1-.217-2-.41-3-.571v14.084a3.923 3.923 0 0 1 1.463 1.155zm-1.463 70.739v27.3l3 .763V390.4a37.716 37.716 0 0 1-3 3.165zm37.4 30.727v-107.43l-3-.763v113.522l3 .763v-3.092zm33.485-97.076a5.08 5.08 0 0 1-2.085-.419v111.578l3 .763v-112a5.575 5.575 0 0 1-.915.078zm32.315 1.076V447.03c1 .2 2 .372 3 .522v-119.26zm37.4 96v-128l-.538-36.052-3 7 .538 29.052v146.721a54.442 54.442 0 0 0 3-1.522v-17.2zm34.4-32v-128l.062-55.052-3 7-.062 48.052v145.86l3-3.543v-11.317zm31.062-218.052.438 135.367a12.029 12.029 0 0 1 1.338-.921 5.112 5.112 0 0 1 1.662-.622l-.438-134.824c-1.012 1.085-2.052-.031-3 1zm35-6-.162 77.847a5.183 5.183 0 0 1 3 .165l.162-78.012a4.4 4.4 0 0 0-3 0zm34 23 .238 52.765a5.536 5.536 0 0 1 3-.56l-.238-52.2z"/><path d="m426.977 165.24.238 77.765a5.536 5.536 0 0 1 3-.56l-.238-77.2zm36-1 .238 122.765a5.536 5.536 0 0 1 3-.56l-.238-122.2zm37.438 100.052V161.489l-3 .06v73.743l-.438 36.948h3zm34.4 0V160.793l-3 .061v106.438l.162 2.948h3zm34.4 0V160.097l-3 .06v110.024l3-.061v-2.828zm34.4 96V159.401l-3 .061V364.39l3 .464v-1.562zm34.4 0V158.705l-3 .06v210.942l3 .463v-6.878zm34.4 0V163.484a56.025 56.025 0 0 0-3-1.27v212.809l3 .464v-15.2zm31.7-138.4a55.069 55.069 0 0 0-.2-17.474v18.77zm95.117 563.527c13.249 35.273 63.232 74.182 122.683 60.073 27.1-6.4 53.3 12.7 61.8 39.4l-260.3 105L672.9 865.043M233.315 989.892c-2.1-28 15.1-55.5 42.6-59.7C314.727 924.317 332.6 900.7 340.1 873.8l151.506-42.988-.194 158.181-100.85.115"/></g><path d="M345.115 250.892a3 3 0 0 1-3-3l-.138-79.653a3 3 0 0 1 3-3 3 3 0 0 1 3 3l.138 79.652a3 3 0 0 1-3 3zM321.98 324.24a3 3 0 0 1-2.98-3.351c1.36-11.562 3.029-50.341 4.027-73.512.54-12.548.829-19.156.97-20.461a3 3 0 1 1 5.965.647c-.127 1.172-.5 9.931-.94 20.073-1.066 24.758-2.677 62.172-4.063 73.954a3 3 0 0 1-2.979 2.65z" fill="#222433"/><path d="m448.615 555.192-10.3 45.4 63.7 227.3-173.3 48.6-69.9-249.3a90.6 90.6 0 0 1-1.1-44.2l61.2-256c2.537-14.033 9.317-23.071 26.2-31.069v-48.031l106.862-8.652 13 48a60.9 60.9 0 0 1 42.782 39.172l4.5 13 310.656 431.08-153.9 97-256.337-363.177" fill="#fff"/><path d="M328.715 879.493a3 3 0 0 1-2.889-2.191L255.926 628a93.87 93.87 0 0 1-1.137-45.671l61.189-255.956c2.731-14.989 10.355-24.466 26.137-32.33v-46.151a3 3 0 0 1 2.758-2.99l106.861-8.653a3 3 0 0 1 3.138 2.206l12.547 46.328a63.677 63.677 0 0 1 43.175 40.649l4.354 12.586 310.4 430.721a3 3 0 0 1-.834 4.292l-153.9 97a3 3 0 0 1-4.051-.809l-216.52-306.765-8.634 38.057L504.9 827.082a3 3 0 0 1-2.078 3.7l-173.3 48.6a3.026 3.026 0 0 1-.807.111zm19.4-628.834v45.264a3 3 0 0 1-1.716 2.711c-15.394 7.293-22.043 15.124-24.532 28.892-.01.055-.021.11-.034.164l-61.2 256a87.806 87.806 0 0 0 1.072 42.7l69.088 246.4 167.523-46.981L435.427 601.4a2.991 2.991 0 0 1-.037-1.474l10-44.067-35.161-49.817a3 3 0 0 1 4.9-3.459l35.709 50.592a3.024 3.024 0 0 1 .42.6l218.566 309.662 148.791-93.78-308.792-428.489a2.99 2.99 0 0 1-.4-.773l-4.5-13a57.711 57.711 0 0 0-40.675-37.243 3 3 0 0 1-2.168-2.126l-12.349-45.593zm237.203 22.234a3.056 3.056 0 0 1-.589-.059 3 3 0 0 1-2.356-3.528l4.7-23.6a3 3 0 0 1 5.885 1.172l-4.7 23.6a3 3 0 0 1-2.94 2.415zm-352 66.301a3.014 3.014 0 0 1-.706-.085l-19.9-4.8a3 3 0 1 1 1.406-5.832l19.9 4.8a3 3 0 0 1-.7 5.917z" fill="#222433"/><path d="M233.215 451.193a60.454 60.454 0 0 1-14.312-1.786L95.875 418.1c-11.888-3.033-26.235-8.485-31.724-23.852a3 3 0 0 1 .036-2.114L98.1 306.575a3 3 0 0 1 2.276-1.851 57.48 57.48 0 0 1 24.181.961l87.484 22.262c9.146-14.483 69.5-109.791 95.535-144.507 13.864-18.486 42.415-20.084 56.136-20.853 1.993-.111 3.716-.208 4.966-.333a3 3 0 1 1 .6 5.971c-1.381.138-3.164.237-5.228.353-12.816.718-39.483 2.211-51.67 18.461-27.923 37.232-95.741 144.869-96.423 145.952a3.005 3.005 0 0 1-3.279 1.308l-89.6-22.8a51.608 51.608 0 0 0-20.028-1.122l-32.856 82.886c4.781 11.849 16.376 16.271 27.162 19.022l123 31.3a54.358 54.358 0 0 0 12.86 1.608 51.745 51.745 0 0 0 39.7-18.432l26.129-30.855a3 3 0 1 1 4.578 3.877L277.5 430.631a57.727 57.727 0 0 1-44.285 20.562zm447-71.5a3.061 3.061 0 0 1-.458-.035l-108.7-16.8a3 3 0 0 1-2.507-3.422l13.35-86.518-90.21 3.192 5.218 23.479a3 3 0 0 1-5.857 1.3l-6-27a3 3 0 0 1 2.822-3.648l97.439-3.448a3.053 3.053 0 0 1 2.348 1 3 3 0 0 1 .723 2.45l-13.444 87.136 102.769 15.891 23.442-151.836a52.228 52.228 0 0 0-52.58-59.942l-227.531 4.747h-.063a3 3 0 0 1-.062-6l227.538-4.747c.361-.007.725-.011 1.086-.011a58.23 58.23 0 0 1 57.544 66.854l-23.9 154.814a3 3 0 0 1-2.965 2.542zm-280.501-89.801a3 3 0 0 1-1.575-.447l-37.1-22.9a3 3 0 1 1 3.152-5.105l35.209 21.731 24.262-21.388a3 3 0 1 1 3.969 4.5L401.7 289.142a3 3 0 0 1-1.986.75zm38.601 313.701a3 3 0 0 1-2.822-1.983l-8.8-24.4a3 3 0 1 1 5.645-2.035l8.8 24.4a3 3 0 0 1-2.823 4.018z" fill="#222433"/><path d="M72.9 391.133a32.789 32.789 0 0 0 20.025 9.886c19.937 2.095 38.074-15 40.51-38.175 2.186-20.808-9.029-39.436-25.77-44.546-11.658-20.036-40.565-63.486-46.688-73.058a10.157 10.157 0 0 0-15.736 9.514l1.736 16.486 4 24-9.762-2.248-15.4.3c-8 1.1-14.9 8-17.4 15.7a20.871 20.871 0 0 0 5.7 21.8l7.9 7.2a20.4 20.4 0 0 0 12.8 5.5c7 .4 18.6 1 32.5 1.1 23.3.2 25.5-26.7 3.2-26.2-8.4.2-21.442-6.038-34.242-6.738" fill="#fff"/><path d="M96.27 404.2a34.82 34.82 0 0 1-3.656-.2 35.672 35.672 0 0 1-21.849-10.765 3 3 0 1 1 4.277-4.207 29.741 29.741 0 0 0 18.2 9.005c8.767.925 17.443-2.208 24.447-8.809a42.6 42.6 0 0 0 12.766-26.695c2.014-19.168-7.937-36.564-23.662-41.364a3 3 0 0 1-1.717-1.36c-8.837-15.184-27.637-43.9-38.869-61.052a2169.172 2169.172 0 0 1-7.387-11.322 7.159 7.159 0 0 0-10.594 7.007l1.725 16.395 3.986 23.911a3 3 0 0 1-3.632 3.417L40.9 296l-14.844.289c-6.326.953-12.526 6.657-14.79 13.631a17.939 17.939 0 0 0 4.874 18.661l7.892 7.2A17.332 17.332 0 0 0 35 340.5c7.409.423 18.842 1 32.335 1.094 6.72.072 11.956-2.389 14.441-6.709a8.554 8.554 0 0 0 .21-8.709c-1.9-3.208-5.974-4.908-11.406-4.783-4.49.127-10.006-1.4-15.82-3s-12.388-3.4-18.653-3.745a3 3 0 0 1 .328-5.99c6.907.376 13.817 2.275 19.914 3.949 5.377 1.477 10.474 2.871 14.092 2.785 7.587-.158 13.692 2.642 16.7 7.719a14.471 14.471 0 0 1-.168 14.761c-3.557 6.187-10.62 9.72-19.407 9.72h-.276c-13.623-.1-25.156-.677-32.645-1.1a23.545 23.545 0 0 1-14.688-6.313l-7.857-7.17a23.961 23.961 0 0 1-6.536-24.932c3.007-9.266 11.169-16.564 19.848-17.756a2.737 2.737 0 0 1 .35-.028l15.4-.3a2.5 2.5 0 0 1 .732.075l5.392 1.241-3.262-19.577a2.75 2.75 0 0 1-.025-.179l-1.735-16.485a13.156 13.156 0 0 1 20.383-12.325 3.009 3.009 0 0 1 .863.878c1.453 2.273 4.22 6.5 7.722 11.846 11.026 16.841 29.323 44.785 38.455 60.329 17.808 6.1 29.006 25.8 26.74 47.361a48.6 48.6 0 0 1-14.627 30.435c-7.33 6.908-16.281 10.608-25.53 10.608z" fill="#222433"/><path d="M76.41 343.008c14.469 4.669 10.3 25.46-10.195 25.284-13.9-.1-25.5-.7-32.5-1.1a20.4 20.4 0 0 1-12.8-5.5l-7.9-7.2a20.871 20.871 0 0 1-5.7-21.8 21.043 21.043 0 0 1 3.229-6.2l11.4 10.956a20.638 20.638 0 0 0 14.4 5.756z" fill="#fff"/><path d="M66.481 371.293h-.292c-13.624-.1-25.156-.676-32.645-1.1a23.564 23.564 0 0 1-14.687-6.313l-7.863-7.165a23.954 23.954 0 0 1-2.844-32.036 3 3 0 0 1 2.158-1.181 2.957 2.957 0 0 1 2.314.828l11.4 10.955a17.739 17.739 0 0 0 12.3 4.919l40.069-.192a4.293 4.293 0 0 1 .936.145c7.423 2.395 11.624 8.866 10.454 16.1-1.211 7.512-8.268 15.039-21.3 15.04zm-55.342-40.072a18.216 18.216 0 0 0-.97 2.4 17.94 17.94 0 0 0 4.873 18.662l7.894 7.194A17.335 17.335 0 0 0 33.9 364.2c7.409.422 18.841 1 32.334 1.093h.235c9.515 0 14.584-5 15.391-10 .533-3.3-.766-7.422-5.941-9.286l-39.566.19h-.114a23.514 23.514 0 0 1-16.374-6.593z" fill="#222433"/><path d="M74.427 368.3c12.872 5.473 8.334 24.965-11.512 24.794-13.9-.1-25.5-.7-32.5-1.1a20.4 20.4 0 0 1-12.8-5.5l-7.9-7.2a20.871 20.871 0 0 1-5.7-21.8 20.992 20.992 0 0 1 4.4-7.618l11.365 10.542a19.843 19.843 0 0 0 12.272 5.259z" fill="#fff"/><path d="M63.175 396.093h-.285c-13.623-.1-25.157-.677-32.646-1.1a23.55 23.55 0 0 1-14.686-6.313l-7.864-7.17a23.948 23.948 0 0 1-1.5-33.649 3 3 0 0 1 4.265-.186l11.364 10.544a16.9 16.9 0 0 0 10.418 4.464l42.372 2.617a3.015 3.015 0 0 1 .989.233c6.665 2.834 10.185 9.338 8.759 16.184-1.494 7.183-8.622 14.376-21.186 14.376zM8.791 354.316a17.949 17.949 0 0 0 2.951 22.764l7.894 7.195A17.325 17.325 0 0 0 30.6 389c7.408.423 18.84 1 32.333 1.094h.23c9.2 0 14.323-4.8 15.321-9.6a8.077 8.077 0 0 0-4.789-9.238l-41.832-2.588a22.913 22.913 0 0 1-14.127-6.053z" fill="#222433"/><path d="M443.248 54.272a18.84 18.84 0 0 0-3 .243c.02-.084.043-.167.062-.251a45.133 45.133 0 0 0 1.208-10.452c0-25.5-20.129-40.994-45.748-40.607h-2.338c-25.618-.387-45.748 15.1-45.748 40.607a45.133 45.133 0 0 0 1.208 10.452c.019.084.043.167.062.251a18.727 18.727 0 1 0 .725 36.841h1.17a44.876 44.876 0 0 0-.982 9.33c0 15.551 7.94 27.25 19.983 33.789v29.1a24.752 24.752 0 1 0 49.5 0v-29.1c12.043-6.539 19.982-18.238 19.982-33.789a44.944 44.944 0 0 0-.981-9.33h1.169a18.729 18.729 0 1 0 3.729-37.084z" fill="#fff"/><path d="M394.6 191.349a27.813 27.813 0 0 1-27.754-27.774v-27.356c-12.726-7.579-19.983-20.431-19.983-35.533a47.792 47.792 0 0 1 .379-6c-.431.025-.864.038-1.3.038a21.728 21.728 0 0 1-.7-43.445 48.092 48.092 0 0 1-.57-7.476c0-11.993 4.192-22.466 12.125-30.279 8.947-8.813 22-13.557 36.667-13.323h2.294c14.659-.239 27.674 4.509 36.622 13.323 7.932 7.813 12.125 18.286 12.125 30.285a48.073 48.073 0 0 1-.571 7.47 21.728 21.728 0 0 1-.695 43.445q-.648 0-1.3-.038a47.792 47.792 0 0 1 .379 6c0 15.1-7.257 27.954-19.982 35.533v27.356a27.813 27.813 0 0 1-27.736 27.774zM349.676 88.356h1.169a3 3 0 0 1 2.934 3.623 42.083 42.083 0 0 0-.916 8.707c0 13.641 6.539 24.705 18.414 31.152a3 3 0 0 1 1.569 2.637v29.1a21.752 21.752 0 1 0 43.5 0v-29.1a3 3 0 0 1 1.568-2.637c11.875-6.447 18.414-17.511 18.414-31.152a42.083 42.083 0 0 0-.916-8.707 3 3 0 0 1 2.935-3.623h1.169a2.942 2.942 0 0 1 .592.059 15.962 15.962 0 0 0 3.137.313 15.728 15.728 0 1 0-2.525-31.251 3 3 0 0 1-3.4-3.642l.048-.193a42.264 42.264 0 0 0 1.144-9.823c0-10.363-3.575-19.357-10.335-26.016C420.385 10.125 408.9 6 395.811 6.205h-2.383c-13.1-.222-24.618 3.92-32.412 11.6-6.761 6.659-10.335 15.653-10.335 26.01a42.137 42.137 0 0 0 1.127 9.762l.064.26a3 3 0 0 1-3.4 3.642 15.726 15.726 0 1 0 .611 30.938 2.952 2.952 0 0 1 .593-.061z" fill="#222433"/><path d="M439.177 87.549c-4.786-3.621-11.843-1.649-20.793.857-7.082 1.981-15.109 4.237-23.7 4.237s-16.63-2.256-23.711-4.237c-8.95-2.506-16.008-4.486-20.794-.857-3.161 2.4-4.632 6.791-4.632 13.809 0 13.064 5.028 24.22 14.536 32.248 8.876 7.5 21.165 11.634 34.6 11.634s25.716-4.132 34.593-11.634c9.515-8.028 14.544-19.184 14.544-32.248-.002-7.018-1.482-11.407-4.643-13.809zm-61.813 15.134h34.658c-5.901 28.587-35.422 19.557-34.658 0z" fill="#5a38fd"/><rect fill="#5a38fd" height="11.102" rx="5.342" width="60.334" x="364.434"/><circle cx="371.557" cy="63.423" fill="#222433" r="4.738"/><circle cx="416.6" cy="63.423" fill="#222433" r="4.738"/><path d="M390.758 91.431a3 3 0 0 1-1.095-5.8l8.947-3.5-6.974-19.831a3 3 0 0 1 5.66-1.99l7.935 22.568a3 3 0 0 1-1.736 3.789l-11.644 4.56a2.991 2.991 0 0 1-1.093.204zm3.479 31.327a17.4 17.4 0 0 1-2.1-.126 19.8 19.8 0 0 1-17.123-20.421 3 3 0 0 1 3-2.884H411.2a3 3 0 0 1 2.939 3.607c-3.039 14.747-12.185 19.824-19.902 19.824zm-13.051-17.431a13.773 13.773 0 0 0 11.678 11.349c5.176.626 11.4-2.136 14.447-11.349zm70.787 136.913a3 3 0 0 1-2.965-2.571l-11-76a3 3 0 1 1 5.937-.859l11 76a3 3 0 0 1-2.539 3.4 2.887 2.887 0 0 1-.433.03zm43.001 66.001a3 3 0 0 1-2.919-2.32l-21-90a3 3 0 0 1 5.843-1.363l21 90a3 3 0 0 1-2.24 3.6 3.039 3.039 0 0 1-.684.083z" fill="#222433"/></svg></g><g transform="translate(779.0 526.0) rotate(0.0 -31.5 35.5) translate(-0.0 0.0) scale(-0.8395634270179506 0.8425299632134805)"><svg width="75.039" height="79.522" viewBox="0 0 75.039 79.522"><path d="M20.739 84.27.679 26.7C-1.53 20.346 1.83 13.405 8.184 11.196c.137-.048.276-.093.415-.136 6.411-1.987 13.221 1.592 15.22 8l4.25 13.69V10.82C28.063 4.85 32.898.006 38.869 0h.04c5.97-.005 10.814 4.83 10.82 10.8V46l3.37-4.58a12.16 12.16 0 0 1 15.75-3.38c5.844 3.287 7.917 10.689 4.63 16.533l-.01.017-16.73 29.68z" fill="#5a38fd"/></svg></g><g transform="translate(973.0 308.0) rotate(-10.432522438943392 -36.0 107.0) translate(-0.0 0.0) scale(-0.6177606177606177 0.6217857454165092)"><svg width="116.55" height="344.17" viewBox="0 0 116.55 344.17"><g fill="#82b1ff"><circle cx="42.15" cy="26.63" r="26.63"/><circle cx="78.98" cy="78.33" r="26.63"/><circle cx="26.63" cy="88.18" r="26.63"/><circle cx="89.92" cy="136.47" r="26.63"/><circle cx="37.57" cy="146.32" r="26.63"/></g><path d="M101.337 344.17a3 3 0 0 1-2.945-2.445L39.2 27.185a3 3 0 0 1 5.9-1.11l59.19 314.54a3 3 0 0 1-2.393 3.5 3.043 3.043 0 0 1-.56.055z" fill="#222433"/></svg></g><g transform="translate(978.0 527.0) rotate(0.0 -44.5 32.5) translate(-0.0 19.443434489696) scale(-0.34268992337607335 0.3438425730004232)"><svg width="259.71" height="132.493" viewBox="0 56.547 259.71 132.493"><g fill="#5a38fd"><path d="M259.71 189.04s-27.86-65.56-90.86-50.77a19.882 19.882 0 0 1-24.26-17.28c-4.95-45.57-35-58.75-66.9-50.39-39.89 10.47-50 56-41.66 77.52 8.36 21.73 27.06 40.92 57 40.92z"/><circle cx="24.39" cy="24.39" r="24.39"/></g></svg></g><g transform="translate(775.0 438.0) rotate(0.0 35.5 64.5) scale(0.6491131833973305 0.6512520193861066)"><svg width="109.38" height="198.08" viewBox="0 0 109.38 198.08"><path d="M54.69 198.08a3 3 0 0 1-3-3V81.45a3 3 0 1 1 6 0v113.63a3 3 0 0 1-3 3z" fill="#222433"/><path d="M98.44 0C92.398 0 87.5 4.898 87.5 10.94 87.5 4.898 82.602 0 76.56 0c-6.036 0-10.93 4.893-10.93 10.93v.01C65.63 4.898 60.732 0 54.69 0S43.75 4.898 43.75 10.94C43.75 4.898 38.852 0 32.81 0S21.87 4.898 21.87 10.94C21.875 4.904 16.986.006 10.95 0h-.01C4.898 0 0 4.898 0 10.94v45.77c0 30.204 24.485 54.69 54.69 54.69 30.202-.006 54.684-24.488 54.69-54.69V10.94C109.38 4.898 104.482 0 98.44 0z" fill="#82b1ff"/><g fill="#222433"><path d="M87.5 56.06a3 3 0 0 1-3-3V10.07a3 3 0 1 1 6 0v42.99a3 3 0 0 1-3 3zm-21.88 0a3 3 0 0 1-3-3V10.07a3 3 0 1 1 6 0v42.99a3 3 0 0 1-3 3zm-21.87 0a3 3 0 0 1-3-3V10.07a3 3 0 1 1 6 0v42.99a3 3 0 0 1-3 3zm-21.88 0a3 3 0 0 1-3-3V10.07a3 3 0 1 1 6 0v42.99a3 3 0 0 1-3 3z"/></g></svg></g><g transform="translate(93.0 276.0) rotate(0.0 106.0 39.0) scale(0.4187885947272146 0.41750971512990975)"><svg width="506.222" height="186.822" viewBox="0 0 506.222 186.822"><circle cx="218.194" cy="92.582" fill="#fff" r="89.582"/><path d="M218.194 185.164a92.582 92.582 0 1 1 92.582-92.582 92.687 92.687 0 0 1-92.582 92.582zm0-179.164a86.582 86.582 0 1 0 86.582 86.582A86.68 86.68 0 0 0 218.194 6z" fill="#222433"/><path d="M503.222 183.639a82.028 82.028 0 0 0-82.029-82.029h-3.671c-27.867-28.352-66.247-45.91-98.549-49.561C229.283 41.9 180.331 84.7 178.7 85.687a134.733 134.733 0 0 0-46.427-7.882c-48.709 0-88.195 23.575-88.195 52.657a33.233 33.233 0 0 0 3.142 13.95 33.955 33.955 0 0 0-16.12-3.924c-15.519 0-28.278 9.7-28.1 21.667.369 24.577 32.937 21.422 35.21 20.965l465.01.519z" fill="#fff"/><g fill="#222433"><path d="m503.222 186.639-464.747-.519c-3.769.62-20.417 1.577-30.482-6.54C2.8 175.394.112 169.546 0 162.2a21.016 21.016 0 0 1 6.472-15.22c5.941-6.033 14.918-9.493 24.626-9.493a38.4 38.4 0 0 1 11.058 1.6 35.146 35.146 0 0 1-1.083-8.624c0-15.164 9.694-29.3 27.294-39.811 17.117-10.219 39.81-15.847 63.9-15.847a139.041 139.041 0 0 1 45.909 7.5c13.957-10.67 62.624-42.119 141.134-33.237 34.847 3.942 72.84 22.887 99.464 49.541h2.419a85.126 85.126 0 0 1 85.029 85.03 3 3 0 0 1-3 3zm-465.01-6.519 461.95.516a79.125 79.125 0 0 0-78.972-76.027h-3.67a3 3 0 0 1-2.14-.9c-25.743-26.19-62.814-44.844-96.747-48.683-77.441-8.76-124.733 22.653-137.377 32.489a11.4 11.4 0 0 1-1 .738 3 3 0 0 1-2.6.248 132.1 132.1 0 0 0-45.384-7.7c-46.977 0-85.2 22.276-85.2 49.658a30.274 30.274 0 0 0 2.869 12.7 3 3 0 0 1-4.155 3.891 30.911 30.911 0 0 0-14.686-3.563c-7.993 0-15.6 2.879-20.352 7.7A15.161 15.161 0 0 0 6 162.11c.083 5.53 1.948 9.7 5.7 12.756 8.355 6.793 23.482 5.781 25.918 5.313a3.24 3.24 0 0 1 .594-.059z"/><path d="M159.463 127.616a3 3 0 0 1-3-3c0-15.864 8.018-30.846 23.185-43.327a3 3 0 0 1 3.812 4.633c-13.736 11.3-21 24.683-21 38.694a3 3 0 0 1-2.997 3zm270.993 8.677a3 3 0 0 1-3-2.96c-.187-14.01-7.626-27.291-21.512-38.409a3 3 0 0 1 3.75-4.684c15.333 12.277 23.549 27.15 23.762 43.013a3 3 0 0 1-2.96 3.04z"/></g></svg></g><g transform="translate(1003.0 542.0) rotate(0.0 -35.0 25.5) translate(-0.0 15.192318649448675) scale(-0.26953140040814755 0.2697841726618705)"><svg width="259.71" height="132.727" viewBox="0 56.313 259.71 132.727"><g fill="#5a38fd"><path d="M259.71 189.04s-27.86-65.56-90.86-50.77a19.882 19.882 0 0 1-24.26-17.28c-4.95-45.57-35-58.75-66.9-50.39-39.89 10.47-50 56-41.66 77.52 8.36 21.73 27.06 40.92 57 40.92z"/><circle cx="24.39" cy="24.39" r="24.39"/></g></svg></g></svg>