<svg fill="#228BE6" xmlns="http://www.w3.org/2000/svg"  viewBox="0 0 50 50" width="20px" height="20px"><path d="M 26.636719 2 C 24.354663 2 22.614316 2.7928509 21.714844 4.2070312 C 20.904723 5.4807311 20.892104 7.0825372 21.267578 8.7265625 C 21.076255 9.0613101 20.957405 9.4534681 21.011719 9.9453125 C 21.074859 10.514836 21.215024 10.967911 21.480469 11.335938 C 21.578209 11.471455 21.753365 11.478888 21.884766 11.578125 C 22.019831 12.110096 22.161244 12.660176 22.425781 13.017578 C 22.611532 13.268535 22.800662 13.479445 22.976562 13.650391 C 22.984163 13.657791 22.9926 13.660779 23 13.667969 L 23 14.660156 C 22.9328 14.811168 22.822992 14.951395 22.474609 15.148438 C 22.089979 15.36598 21.514864 15.588357 20.890625 15.892578 C 20.266386 16.1968 19.577834 16.594686 19.015625 17.251953 C 18.453416 17.90922 18.063913 18.825238 18.001953 19.945312 A 1.0001 1.0001 0 0 0 19 21 L 33 21 A 1.0001 1.0001 0 0 0 33.998047 19.945312 C 33.936087 18.825239 33.546551 17.909284 32.984375 17.251953 C 32.422199 16.594622 31.733635 16.196878 31.109375 15.892578 C 30.485115 15.588278 29.910089 15.364029 29.525391 15.146484 C 29.177008 14.949476 29.067147 14.810888 29 14.660156 L 29 13.65625 C 29.0097 13.64645 29.02117 13.640999 29.03125 13.630859 C 29.204238 13.456801 29.391071 13.244369 29.572266 12.994141 C 29.828242 12.640639 29.963567 12.108457 30.097656 11.59375 C 30.229448 11.49445 30.403997 11.487375 30.501953 11.351562 C 30.767766 10.983026 30.910125 10.530593 30.972656 9.9609375 C 31.014736 9.5798754 30.979556 9.2234446 30.847656 8.8925781 C 30.82995 8.848158 30.751986 8.8242148 30.730469 8.7792969 C 31.009576 7.6344213 31.100511 6.4134621 30.658203 5.2929688 C 30.236023 4.2234635 29.144477 3.4898263 27.78125 3.2246094 L 27.576172 2.6582031 A 1.0001 1.0001 0 0 0 26.636719 2 z M 25.976562 4.1113281 L 26.060547 4.3417969 A 1.0001 1.0001 0 0 0 27 5 C 28.193111 5 28.538713 5.3733439 28.796875 6.0273438 C 29.055037 6.6813434 29.026996 7.746091 28.730469 8.7050781 A 1.0001 1.0001 0 0 0 28.986328 9.7128906 C 28.986722 9.7319916 28.987575 9.7132552 28.984375 9.7421875 C 28.953395 10.024429 28.910077 10.080602 28.898438 10.105469 A 1.0001 1.0001 0 0 0 28.316406 11.011719 C 28.316406 11.133233 28.179986 11.508972 27.953125 11.822266 C 27.839694 11.978913 27.713199 12.12212 27.613281 12.222656 C 27.513361 12.323192 27.386323 12.399101 27.503906 12.332031 A 1.0001 1.0001 0 0 0 27 13.199219 L 27 14.933594 A 1.0001 1.0001 0 0 0 27.054688 15.257812 C 27.328761 16.058571 27.956356 16.559154 28.539062 16.888672 C 29.121771 17.21819 29.715557 17.437503 30.232422 17.689453 C 30.749287 17.941403 31.173864 18.212503 31.464844 18.552734 C 31.551504 18.654067 31.555734 18.878936 31.625 19 L 20.375 19 C 20.44425 18.878963 20.4485 18.654039 20.535156 18.552734 C 20.826103 18.212595 21.250692 17.94331 21.767578 17.691406 C 22.284464 17.439503 22.878162 17.218284 23.460938 16.888672 C 24.043713 16.559059 24.671328 16.058726 24.945312 15.257812 A 1.0001 1.0001 0 0 0 25 14.933594 L 25 13.199219 A 1.0001 1.0001 0 0 0 24.492188 12.330078 C 24.59273 12.386858 24.471378 12.314258 24.371094 12.216797 C 24.270808 12.119337 24.146203 11.980793 24.033203 11.828125 C 23.807204 11.522789 23.666016 11.160996 23.666016 10.996094 A 1.0001 1.0001 0 0 0 23.085938 10.089844 C 23.074068 10.064624 23.029357 10.008974 22.998047 9.7265625 C 22.993758 9.6877218 23.001954 9.7003712 23.007812 9.6875 A 1.0001 1.0001 0 0 0 23.257812 8.7089844 C 22.829707 7.2151039 22.927816 6.0273195 23.402344 5.28125 C 23.803508 4.6505262 24.646608 4.244575 25.976562 4.1113281 z M 17.957031 8.9960938 A 1.0001 1.0001 0 0 0 17.599609 9.0839844 C 11.361849 11.808256 7 17.695404 7 24.537109 C 7 25.062564 7.0260489 25.583628 7.0761719 26.097656 A 1.0001 1.0001 0 1 0 9.0664062 25.902344 C 9.0225294 25.452372 9 24.997655 9 24.537109 C 9 18.544815 12.814151 13.355744 18.400391 10.916016 A 1.0001 1.0001 0 0 0 17.957031 8.9960938 z M 33.824219 9.3945312 A 1.0001 1.0001 0 0 0 33.410156 11.294922 C 38.553591 13.870417 42 18.838911 42 24.537109 C 42 24.997655 41.977434 25.453705 41.933594 25.902344 A 1.0001 1.0001 0 1 0 43.923828 26.097656 C 43.973994 25.584295 44 25.062564 44 24.537109 C 44 18.031307 40.055205 12.384364 34.306641 9.5058594 A 1.0001 1.0001 0 0 0 33.824219 9.3945312 z M 11.636719 28 C 9.354663 28 7.6143156 28.792851 6.7148438 30.207031 C 5.904723 31.480731 5.8921036 33.082537 6.2675781 34.726562 C 6.0762554 35.06131 5.9574046 35.453468 6.0117188 35.945312 C 6.0748597 36.514837 6.2150242 36.967911 6.4804688 37.335938 C 6.5782127 37.471455 6.7533648 37.478888 6.8847656 37.578125 C 7.0198314 38.110096 7.161244 38.660176 7.4257812 39.017578 C 7.6115315 39.268535 7.8006609 39.479445 7.9765625 39.650391 C 7.9841725 39.657791 7.992604 39.660779 8 39.667969 L 8 40.660156 C 7.932804 40.811168 7.8229917 40.951396 7.4746094 41.148438 C 7.0899786 41.36598 6.5148639 41.588357 5.890625 41.892578 C 5.2663861 42.1968 4.5778345 42.594686 4.015625 43.251953 C 3.4534155 43.90922 3.0639135 44.825237 3.0019531 45.945312 A 1.0001 1.0001 0 0 0 4 47 L 18 47 A 1.0001 1.0001 0 0 0 18.998047 45.945312 C 18.936087 44.82524 18.546551 43.909284 17.984375 43.251953 C 17.422199 42.594622 16.733635 42.196878 16.109375 41.892578 C 15.485115 41.588278 14.910089 41.364029 14.525391 41.146484 C 14.177008 40.949476 14.067147 40.810888 14 40.660156 L 14 39.65625 C 14.0097 39.64645 14.02117 39.640999 14.03125 39.630859 C 14.204238 39.456801 14.391071 39.244369 14.572266 38.994141 C 14.828242 38.640639 14.963567 38.108457 15.097656 37.59375 C 15.229448 37.49445 15.403997 37.487375 15.501953 37.351562 C 15.767766 36.983025 15.910125 36.530593 15.972656 35.960938 C 16.014736 35.579875 15.979556 35.223445 15.847656 34.892578 C 15.829946 34.848158 15.751986 34.824218 15.730469 34.779297 C 16.009576 33.634421 16.100515 32.413462 15.658203 31.292969 C 15.236023 30.223464 14.144477 29.489826 12.78125 29.224609 L 12.576172 28.658203 A 1.0001 1.0001 0 0 0 11.636719 28 z M 40.636719 28 C 38.354663 28 36.614316 28.792851 35.714844 30.207031 C 34.904723 31.480731 34.892104 33.082537 35.267578 34.726562 C 35.076255 35.06131 34.957405 35.453468 35.011719 35.945312 C 35.074859 36.514837 35.215024 36.967911 35.480469 37.335938 C 35.578209 37.471455 35.753365 37.478888 35.884766 37.578125 C 36.019831 38.110096 36.161244 38.660176 36.425781 39.017578 C 36.611532 39.268535 36.800661 39.479445 36.976562 39.650391 C 36.984162 39.657791 36.9926 39.660779 37 39.667969 L 37 40.660156 C 36.9328 40.811168 36.822992 40.951396 36.474609 41.148438 C 36.089979 41.36598 35.514864 41.588357 34.890625 41.892578 C 34.266386 42.1968 33.577834 42.594686 33.015625 43.251953 C 32.453416 43.90922 32.063913 44.825237 32.001953 45.945312 A 1.0001 1.0001 0 0 0 33 47 L 47 47 A 1.0001 1.0001 0 0 0 47.998047 45.945312 C 47.936087 44.82524 47.546551 43.909284 46.984375 43.251953 C 46.422199 42.594622 45.733635 42.196878 45.109375 41.892578 C 44.485115 41.588278 43.910089 41.364029 43.525391 41.146484 C 43.177008 40.949476 43.067147 40.810888 43 40.660156 L 43 39.65625 C 43.0097 39.64645 43.02117 39.640999 43.03125 39.630859 C 43.204238 39.456801 43.391071 39.244369 43.572266 38.994141 C 43.828242 38.640639 43.963567 38.108457 44.097656 37.59375 C 44.229448 37.49445 44.403997 37.487375 44.501953 37.351562 C 44.767766 36.983025 44.910125 36.530593 44.972656 35.960938 C 45.014736 35.579875 44.979556 35.223445 44.847656 34.892578 C 44.829946 34.848158 44.751986 34.824218 44.730469 34.779297 C 45.009576 33.634421 45.100515 32.413462 44.658203 31.292969 C 44.236023 30.223464 43.144477 29.489826 41.78125 29.224609 L 41.576172 28.658203 A 1.0001 1.0001 0 0 0 40.636719 28 z M 10.976562 30.111328 L 11.060547 30.341797 A 1.0001 1.0001 0 0 0 12 31 C 13.193111 31 13.538713 31.373344 13.796875 32.027344 C 14.055037 32.681344 14.026996 33.746091 13.730469 34.705078 A 1.0001 1.0001 0 0 0 13.986328 35.712891 C 13.986722 35.731991 13.987575 35.713251 13.984375 35.742188 C 13.953395 36.024428 13.910077 36.080602 13.898438 36.105469 A 1.0001 1.0001 0 0 0 13.316406 37.011719 C 13.316406 37.133233 13.179986 37.508972 12.953125 37.822266 C 12.839694 37.978913 12.713199 38.12212 12.613281 38.222656 C 12.513361 38.323192 12.386323 38.399101 12.503906 38.332031 A 1.0001 1.0001 0 0 0 12 39.199219 L 12 40.933594 A 1.0001 1.0001 0 0 0 12.054688 41.257812 C 12.32876 42.058571 12.956356 42.559154 13.539062 42.888672 C 14.121771 43.21819 14.715557 43.437503 15.232422 43.689453 C 15.749287 43.941403 16.173864 44.212503 16.464844 44.552734 C 16.551505 44.654067 16.555739 44.878936 16.625 45 L 5.375 45 C 5.4442539 44.878963 5.4485026 44.654039 5.5351562 44.552734 C 5.826103 44.212595 6.250692 43.94331 6.7675781 43.691406 C 7.2844642 43.439503 7.878162 43.218284 8.4609375 42.888672 C 9.043713 42.559059 9.6713266 42.058726 9.9453125 41.257812 A 1.0001 1.0001 0 0 0 10 40.933594 L 10 39.199219 A 1.0001 1.0001 0 0 0 9.4921875 38.330078 C 9.5927296 38.386859 9.4713795 38.314257 9.3710938 38.216797 C 9.2708078 38.119336 9.1462029 37.980793 9.0332031 37.828125 C 8.8072036 37.522789 8.6660156 37.160996 8.6660156 36.996094 A 1.0001 1.0001 0 0 0 8.0859375 36.089844 C 8.0740715 36.064624 8.0293569 36.008975 7.9980469 35.726562 C 7.9937577 35.687722 8.0019539 35.700371 8.0078125 35.6875 A 1.0001 1.0001 0 0 0 8.2578125 34.708984 C 7.8297074 33.215104 7.9278155 32.02732 8.4023438 31.28125 C 8.8035077 30.650526 9.6466087 30.244575 10.976562 30.111328 z M 39.976562 30.111328 L 40.060547 30.341797 A 1.0001 1.0001 0 0 0 41 31 C 42.193111 31 42.538713 31.373344 42.796875 32.027344 C 43.055037 32.681344 43.026996 33.746091 42.730469 34.705078 A 1.0001 1.0001 0 0 0 42.986328 35.712891 C 42.986722 35.731991 42.987575 35.713251 42.984375 35.742188 C 42.953395 36.024428 42.910077 36.080602 42.898438 36.105469 A 1.0001 1.0001 0 0 0 42.316406 37.011719 C 42.316406 37.133233 42.179986 37.508972 41.953125 37.822266 C 41.839694 37.978913 41.713199 38.12212 41.613281 38.222656 C 41.513361 38.323192 41.386323 38.399101 41.503906 38.332031 A 1.0001 1.0001 0 0 0 41 39.199219 L 41 40.933594 A 1.0001 1.0001 0 0 0 41.054688 41.257812 C 41.328761 42.058571 41.956356 42.559154 42.539062 42.888672 C 43.12177 43.21819 43.715557 43.437503 44.232422 43.689453 C 44.749287 43.941403 45.173864 44.212503 45.464844 44.552734 C 45.551504 44.654067 45.555744 44.878936 45.625 45 L 34.375 45 C 34.44425 44.878963 34.4485 44.654039 34.535156 44.552734 C 34.826103 44.212595 35.250692 43.94331 35.767578 43.691406 C 36.284464 43.439503 36.878161 43.218284 37.460938 42.888672 C 38.043712 42.559059 38.671327 42.058726 38.945312 41.257812 A 1.0001 1.0001 0 0 0 39 40.933594 L 39 39.199219 A 1.0001 1.0001 0 0 0 38.492188 38.330078 C 38.592729 38.386858 38.471378 38.314258 38.371094 38.216797 C 38.270808 38.119337 38.146203 37.980793 38.033203 37.828125 C 37.807204 37.522789 37.666016 37.160996 37.666016 36.996094 A 1.0001 1.0001 0 0 0 37.085938 36.089844 C 37.074067 36.064624 37.029357 36.008975 36.998047 35.726562 C 36.993758 35.687722 37.001954 35.700371 37.007812 35.6875 A 1.0001 1.0001 0 0 0 37.257812 34.708984 C 36.829707 33.215104 36.927816 32.02732 37.402344 31.28125 C 37.803508 30.650526 38.646608 30.244575 39.976562 30.111328 z M 32.998047 38.396484 A 1.0001 1.0001 0 0 0 32.591797 38.5 C 30.445642 39.46119 28.04242 40 25.5 40 C 22.95758 40 20.554358 39.46119 18.408203 38.5 A 1.0001 1.0001 0 0 0 18.021484 38.40625 A 1.0001 1.0001 0 0 0 17.591797 40.324219 C 19.991642 41.399029 22.67442 42 25.5 42 C 28.32558 42 31.008358 41.399029 33.408203 40.324219 A 1.0001 1.0001 0 0 0 32.998047 38.396484 z"/></svg>