<svg fill="#228BE6" xmlns="http://www.w3.org/2000/svg"  viewBox="0 0 50 50" width="20px" height="20px"><path d="M 24.140625 3 C 23.028625 3 22.112766 3.8856719 22.009766 5.0136719 C 17.607766 5.5726719 15.171812 9.8379062 15.007812 14.003906 C 13.982813 14.369906 13 15.199 13 18 C 13 18.459 13.312812 18.858703 13.757812 18.970703 C 13.815697 18.985174 14.489217 19.121277 15.429688 19.28125 C 15.53888 19.862485 15.668814 20.404557 15.824219 20.974609 C 15.839219 21.030609 15.854141 21.086531 15.869141 21.144531 C 15.395141 21.642531 14.999 22.371672 15 23.263672 C 15 23.416672 15.008297 23.576141 15.029297 23.744141 C 15.272297 25.763141 16.180516 26.843391 17.103516 27.275391 C 17.395516 28.854391 18.121 30.606469 19 31.480469 L 19 33.802734 C 18.372 35.171734 16.368547 35.895516 14.060547 36.728516 C 10.187547 38.126516 5.3669531 39.868406 5.0019531 45.941406 C 4.9849531 46.215406 5.0824844 46.485547 5.2714844 46.685547 C 5.4604844 46.886547 5.725 47 6 47 L 36 47 L 36 45 L 7.1289062 45 C 7.8789062 41.087 11.361281 39.828375 14.738281 38.609375 C 17.479281 37.619375 20.0685 36.684656 20.9375 34.347656 C 20.9795 34.236656 21 34.119 21 34 L 21 31 C 21 30.662 20.757609 30.304141 20.474609 30.119141 C 20.137609 29.899141 19.200141 28.322578 18.994141 26.392578 C 18.944141 25.922578 18.551031 25.550953 18.082031 25.501953 C 17.865031 25.479953 17.204578 25.063859 17.017578 23.505859 C 17.005578 23.420859 17 23.339719 17 23.261719 C 17 22.687719 17.514531 22.358469 17.519531 22.355469 C 17.895531 22.126469 18.07975 21.676 17.96875 21.25 C 17.89375 20.96 17.821906 20.695312 17.753906 20.445312 C 17.688306 20.205304 17.622798 19.889284 17.556641 19.587891 C 19.418315 19.806096 21.900186 20 25.005859 20 C 28.180236 20 30.701216 19.798361 32.572266 19.574219 C 32.451896 20.014896 32.321953 20.396387 32.199219 20.748047 L 32.050781 21.185547 C 31.903781 21.627547 32.081469 22.114469 32.480469 22.355469 C 32.485469 22.359469 33.001 22.677953 33 23.251953 C 33 23.328953 32.994375 23.409141 32.984375 23.494141 C 32.796375 25.057141 32.135922 25.478906 31.919922 25.503906 C 31.440922 25.542906 31.057859 25.916531 31.005859 26.394531 C 30.798859 28.322531 29.862156 29.902187 29.535156 30.117188 C 29.206156 30.288188 29 30.629 29 31 L 29 34 C 29 34.119 29.0215 34.237609 29.0625 34.349609 C 29.9325 36.686609 32.521719 37.620328 35.261719 38.611328 C 35.506719 38.700328 35.752047 38.796672 35.998047 38.888672 L 35.998047 36.75 C 35.97869 36.74315 35.960819 36.73531 35.941406 36.728516 C 33.632406 35.895516 31.628 35.171734 31 33.802734 L 31 31.478516 C 31.881 30.601516 32.607438 28.840812 32.898438 27.257812 C 33.753437 26.839813 34.719703 25.819469 34.970703 23.730469 C 34.990703 23.563469 35 23.402953 35 23.251953 C 35.002 22.386953 34.625969 21.676641 34.167969 21.181641 C 34.342862 20.67445 34.523545 20.024089 34.681641 19.263672 C 35.558544 19.111718 36.18635 18.984662 36.242188 18.970703 C 36.687188 18.858703 37 18.459 37 18 C 37 15.179 36.018234 14.350188 34.990234 13.992188 C 34.822234 9.8291875 32.390234 5.5706719 27.990234 5.0136719 C 27.888234 3.8856719 26.971422 3 25.857422 3 L 24.140625 3 z M 24.142578 5 L 25.857422 5 C 25.892422 5 26 5.0796094 26 5.2246094 L 26 12 C 26 12.552 26.448 13 27 13 C 27.552 13 28 12.552 28 12 L 28 7.0371094 C 31.622 7.6791094 33 11.786125 33 14.453125 C 33 15.495125 33.912891 15.758703 34.212891 15.845703 C 34.490891 15.925703 34.855797 16.030313 34.966797 17.195312 C 33.495797 17.472313 30.031859 18 25.005859 18 C 19.977859 18 16.506203 17.470359 15.033203 17.193359 C 15.142203 16.046359 15.499875 15.939609 15.796875 15.849609 C 16.093875 15.759609 17 15.486125 17 14.453125 C 17 11.679125 18.354 7.6572031 22 7.0332031 L 22 12 C 22 12.552 22.448 13 23 13 C 23.552 13 24 12.552 24 12 L 24 5.2246094 C 24 5.0796094 24.106578 5 24.142578 5 z M 39 20 A 1.0001 1.0001 0 0 0 38 21 L 38 41 L 38 47 C 38 48.64497 39.35503 50 41 50 L 47 50 C 48.64497 50 50 48.64497 50 47 L 50 43 A 1.0001 1.0001 0 0 0 49.707031 42.292969 L 48.414062 41 L 49.707031 39.707031 A 1.0001 1.0001 0 0 0 49.707031 38.292969 L 47.414062 36 L 48.707031 34.707031 A 1.0001 1.0001 0 0 0 48.707031 33.292969 L 46.414062 31 L 47.707031 29.707031 A 1.0001 1.0001 0 0 0 47.707031 28.292969 L 45.414062 26 L 46.707031 24.707031 A 1.0001 1.0001 0 0 0 46.707031 23.292969 L 43.707031 20.292969 A 1.0001 1.0001 0 0 0 43 20 L 39 20 z M 40 22 L 42.585938 22 L 44.585938 24 L 43.292969 25.292969 A 1.0001 1.0001 0 0 0 43.292969 26.707031 L 45.585938 29 L 44.292969 30.292969 A 1.0001 1.0001 0 0 0 44.292969 31.707031 L 46.585938 34 L 45.292969 35.292969 A 1.0001 1.0001 0 0 0 45.292969 36.707031 L 47.585938 39 L 46.585938 40 L 40 40 L 40 22 z M 40 42 L 46.585938 42 L 48 43.414062 L 48 47 C 48 47.56503 47.56503 48 47 48 L 41 48 C 40.43497 48 40 47.56503 40 47 L 40 42 z M 43 44 A 1.0001 1.0001 0 1 0 43 46 L 45 46 A 1.0001 1.0001 0 1 0 45 44 L 43 44 z"/></svg>