<?xml version="1.0"?><svg fill="#228BE6" xmlns="http://www.w3.org/2000/svg"  viewBox="0 0 80 80" width="20px" height="20px">    <path d="M 55.429688 8.0488281 C 54.976805 8.0703574 54.519327 8.1180338 54.058594 8.1914062 C 48.201675 9.1241344 43.788467 14.416585 44 20.351562 C 44.151838 24.600971 46.481671 28.137123 50 30.070312 L 50 35 C 50 36.906906 51.359277 38.5121 53.154297 38.904297 C 53.539337 40.116683 54.65939 41 56 41 C 57.34061 41 58.460663 40.116683 58.845703 38.904297 C 60.640723 38.5121 62 36.906906 62 35 L 62 30.064453 C 65.641195 28.062687 68 24.339939 68 19.896484 C 68 13.604158 62.969561 8.4613682 56.773438 8.0605469 C 56.330857 8.0319168 55.882569 8.0272989 55.429688 8.0488281 z M 33.035156 9.5917969 A 1.0001 1.0001 0 0 0 32.671875 9.6523438 C 21.87385 13.401701 16.124164 23.01245 16.009766 32.599609 L 9.3945312 43.833984 C 8.5669186 45.240774 9.1042501 47.089615 10.558594 47.832031 L 15.998047 50.611328 L 15.998047 58 C 15.998047 62.958516 20.039531 67 24.998047 67 L 29.998047 67 L 29.998047 73 L 31.998047 73 L 31.998047 67 A 1 1 0 0 0 32.998047 66 A 1 1 0 0 0 31.998047 65 L 24.998047 65 C 21.120563 65 17.998047 61.877484 17.998047 58 L 17.998047 49.388672 L 11.46875 46.050781 C 11.015093 45.819197 10.860753 45.28882 11.119141 44.849609 L 17.808594 33.490234 A 1.0001 1.0001 0 0 0 17.998047 32.890625 C 17.998047 23.995783 23.217499 15.05169 33.328125 11.541016 A 1.0001 1.0001 0 0 0 33.035156 9.5917969 z M 55.525391 10.046875 C 55.905515 10.028631 56.281311 10.031287 56.652344 10.054688 C 61.846806 10.382274 66 14.66681 66 19.896484 C 66 23.868368 63.908276 27.049207 60.570312 28.636719 L 60 28.908203 L 60 31 L 56 31 L 56 33 L 60 33 L 60 35 C 60 36.116666 59.116666 37 58 37 L 54 37 C 52.883334 37 52 36.116666 52 35 L 52 28.908203 L 51.429688 28.636719 C 48.199751 27.100041 46.135471 24.070658 46 20.279297 C 45.825533 15.384275 49.529965 10.937288 54.373047 10.166016 C 54.760814 10.104263 55.145266 10.065119 55.525391 10.046875 z M 38 11 A 1 1 0 0 0 37 12 A 1 1 0 0 0 38 13 A 1 1 0 0 0 39 12 A 1 1 0 0 0 38 11 z M 74 11 A 1 1 0 0 0 73 12 A 1 1 0 0 0 74 13 A 1 1 0 0 0 75 12 A 1 1 0 0 0 74 11 z M 42 13 A 1 1 0 0 0 41 14 A 1 1 0 0 0 42 15 A 1 1 0 0 0 43 14 A 1 1 0 0 0 42 13 z M 70 13 A 1 1 0 0 0 69 14 A 1 1 0 0 0 70 15 A 1 1 0 0 0 71 14 A 1 1 0 0 0 70 13 z M 37 19 A 1 1 0 0 0 36 20 A 1 1 0 0 0 37 21 A 1 1 0 0 0 38 20 A 1 1 0 0 0 37 19 z M 41 19 A 1 1 0 0 0 40 20 A 1 1 0 0 0 41 21 A 1 1 0 0 0 42 20 A 1 1 0 0 0 41 19 z M 71 19 A 1 1 0 0 0 70 20 A 1 1 0 0 0 71 21 A 1 1 0 0 0 72 20 A 1 1 0 0 0 71 19 z M 75 19 A 1 1 0 0 0 74 20 A 1 1 0 0 0 75 21 A 1 1 0 0 0 76 20 A 1 1 0 0 0 75 19 z M 42 25 A 1 1 0 0 0 41 26 A 1 1 0 0 0 42 27 A 1 1 0 0 0 43 26 A 1 1 0 0 0 42 25 z M 70 25 A 1 1 0 0 0 69 26 A 1 1 0 0 0 70 27 A 1 1 0 0 0 71 26 A 1 1 0 0 0 70 25 z M 38 27 A 1 1 0 0 0 37 28 A 1 1 0 0 0 38 29 A 1 1 0 0 0 39 28 A 1 1 0 0 0 38 27 z M 74 27 A 1 1 0 0 0 73 28 A 1 1 0 0 0 74 29 A 1 1 0 0 0 75 28 A 1 1 0 0 0 74 27 z M 69.525391 38.986328 A 1.0001 1.0001 0 0 0 68.568359 39.8125 C 67.471342 45.557823 64.470417 49.466634 61.609375 53.361328 C 58.748333 57.256023 55.998047 61.193753 55.998047 66.734375 L 55.998047 73 L 57.998047 73 L 57.998047 66.734375 C 57.998047 61.849997 60.380448 58.413977 63.222656 54.544922 C 66.064864 50.675866 69.341221 46.430177 70.533203 40.1875 A 1.0001 1.0001 0 0 0 69.525391 38.986328 z M 42.998047 61 A 1 1 0 0 0 41.998047 62 A 1 1 0 0 0 42.998047 63 A 1 1 0 0 0 43.998047 62 A 1 1 0 0 0 42.998047 61 z M 39.998047 64 A 1 1 0 0 0 38.998047 65 A 1 1 0 0 0 39.998047 66 A 1 1 0 0 0 40.998047 65 A 1 1 0 0 0 39.998047 64 z M 35.998047 65 A 1 1 0 0 0 34.998047 66 A 1 1 0 0 0 35.998047 67 A 1 1 0 0 0 36.998047 66 A 1 1 0 0 0 35.998047 65 z"/></svg>