<?xml version="1.0" encoding="UTF-8"?>
<svg version="1.1" xmlns="http://www.w3.org/2000/svg" width="500" height="500">
<path d="M0 0 C165 0 330 0 500 0 C500 165 500 330 500 500 C335 500 170 500 0 500 C0 335 0 170 0 0 Z " fill="#F9F9F9" transform="translate(0,0)"/>
<path d="M0 0 C1.32 0.33 2.64 0.66 4 1 C3.67 1.99 3.34 2.98 3 4 C14.55 4 26.1 4 38 4 C37.505 2.02 37.505 2.02 37 0 C43.6 0 50.2 0 57 0 C58.85549397 5.64039583 60.70828378 11.28153185 62.55419922 16.92504883 C63.18314443 18.84516628 63.81367067 20.7647666 64.44580078 22.68383789 C65.35343603 25.44022783 66.25539408 28.19841937 67.15625 30.95703125 C67.5827887 32.24623222 67.5827887 32.24623222 68.01794434 33.56147766 C68.27821411 34.36208115 68.53848389 35.16268463 68.80664062 35.98754883 C69.03758423 36.6914827 69.26852783 37.39541656 69.50646973 38.12068176 C70 40 70 40 70 43 C75.61 43 81.22 43 87 43 C87 43.99 87 44.98 87 46 C68.85 46 50.7 46 32 46 C32 45.01 32 44.02 32 43 C38.27 43 44.54 43 51 43 C47.04 31.45 43.08 19.9 39 8 C26.46 7.67 13.92 7.34 1 7 C0.34 9.97 -0.32 12.94 -1 16 C-1.68403097 18.27328511 -2.40357735 20.53629301 -3.1640625 22.78515625 C-3.76347656 24.56889648 -3.76347656 24.56889648 -4.375 26.38867188 C-4.7875 27.60103516 -5.2 28.81339844 -5.625 30.0625 C-6.04523438 31.30966797 -6.46546875 32.55683594 -6.8984375 33.84179688 C-7.92818034 36.89592053 -8.96352424 39.94815472 -10 43 C-2.74 43 4.52 43 12 43 C12 43.99 12 44.98 12 46 C-1.86 46 -15.72 46 -30 46 C-30 45.01 -30 44.02 -30 43 C-24.39 43 -18.78 43 -13 43 C-12.67 40.69 -12.34 38.38 -12 36 C-11.64042165 34.62088738 -11.24136747 33.25078169 -10.78491211 31.90063477 C-10.54473862 31.18041641 -10.30456512 30.46019806 -10.05711365 29.71815491 C-9.79978958 28.96682785 -9.54246552 28.21550079 -9.27734375 27.44140625 C-8.87993736 26.25767677 -8.87993736 26.25767677 -8.47450256 25.05003357 C-7.63449458 22.55223852 -6.78614657 20.05737155 -5.9375 17.5625 C-5.36337702 15.86021322 -4.78980368 14.15774095 -4.21679688 12.45507812 C-2.81754566 8.30121323 -1.4108123 4.14995182 0 0 Z " fill="#050505" transform="translate(148,266)"/>
<path d="M0 0 C5.94 0 11.88 0 18 0 C18 13.2 18 26.4 18 40 C24.12089564 39.94882194 30.23930524 39.88570389 36.359375 39.79248047 C38.43871952 39.76435501 40.51816929 39.74309879 42.59765625 39.72900391 C45.59689892 39.70745762 48.59488745 39.66074724 51.59375 39.609375 C52.51490601 39.60814636 53.43606201 39.60691772 54.38513184 39.60565186 C61.23171666 39.45229061 66.94888842 38.03868343 71.91796875 33.08984375 C76.8677509 24.69805925 78.81735327 15.40662794 81 6 C81.99 6 82.98 6 84 6 C84.07404737 10.94788314 84.12855246 15.89544524 84.16479492 20.84375 C84.17990003 22.5277264 84.20038546 24.21166335 84.22631836 25.89550781 C84.26262721 28.31324993 84.27970847 30.73047292 84.29296875 33.1484375 C84.31619453 34.28132706 84.31619453 34.28132706 84.33988953 35.43710327 C84.34057617 37.56005859 84.34057617 37.56005859 84 41 C80.94924971 43.03383352 80.3784957 43.24936221 76.95674133 43.24050903 C76.1364444 43.24325836 75.31614746 43.24600769 74.47099304 43.24884033 C73.12663933 43.2380545 73.12663933 43.2380545 71.75512695 43.22705078 C70.33532532 43.22748886 70.33532532 43.22748886 68.88684082 43.22793579 C65.75389482 43.22654091 62.62118577 43.21097217 59.48828125 43.1953125 C57.31780629 43.19158294 55.14732966 43.1887357 52.97685242 43.18673706 C47.26068483 43.17909617 41.54461868 43.15944371 35.82849121 43.1373291 C29.99700289 43.11688053 24.1654982 43.10773746 18.33398438 43.09765625 C6.88927832 43.07619829 -4.55535241 43.0420568 -16 43 C-16 42.01 -16 41.02 -16 40 C-10.72 40 -5.44 40 0 40 C0 26.8 0 13.6 0 0 Z " fill="#030303" transform="translate(273,266)"/>
<path d="M0 0 C16.83 0 33.66 0 51 0 C51 0.66 51 1.32 51 2 C45.39 2 39.78 2 34 2 C34 17.18 34 32.36 34 48 C28.06 48 22.12 48 16 48 C16 32.82 16 17.64 16 2 C10.72 2 5.44 2 0 2 C0 1.34 0 0.68 0 0 Z " fill="#020202" transform="translate(257,186)"/>
<path d="M0 0 C0.99 0 1.98 0 3 0 C4.63775981 4.88824311 6.27340157 9.77718837 7.90722656 14.66674805 C8.46135636 16.32416117 9.01602816 17.9813932 9.57128906 19.63842773 C12.83893724 29.39123687 16.02367698 39.15357214 19 49 C12.4 49 5.8 49 -1 49 C-2.98 43.72 -4.96 38.44 -7 33 C-8.65 38.28 -10.3 43.56 -12 49 C-13.32 49 -14.64 49 -16 49 C-13.43427815 38.55714023 -9.82366173 28.46415226 -6.3125 18.3125 C-5.69955011 16.53201106 -5.08691732 14.75141293 -4.47460938 12.97070312 C-2.98672582 8.64586779 -1.4945588 4.32253284 0 0 Z " fill="#070707" transform="translate(175,185)"/>
<path d="M0 0 C3 0.25 3 0.25 5 2.25 C5.25 5.25 5.25 5.25 5 8.25 C3 10.25 3 10.25 0.0625 10.5625 C-3 10.25 -3 10.25 -4.9375 9.0625 C-6 7.25 -6 7.25 -5.8125 4.6875 C-4.61374094 1.09122283 -3.8124642 0.31770535 0 0 Z " fill="#0E0E0E" transform="translate(214,243.75)"/>
<path d="M0 0 C4 1 4 1 6 4 C6.33 2.68 6.66 1.36 7 0 C7.99 0 8.98 0 10 0 C10 3.3 10 6.6 10 10 C9.01 10 8.02 10 7 10 C5.3125 8 5.3125 8 4 6 C3.67 7.32 3.34 8.64 3 10 C2.01 10 1.02 10 0 10 C0 6.7 0 3.4 0 0 Z " fill="#333333" transform="translate(192,244)"/>
<path d="M0 0 C2.33294775 -0.04241723 4.66702567 -0.04092937 7 0 C8 1 8 1 8.09765625 3.06640625 C8.08605469 3.89011719 8.07445312 4.71382812 8.0625 5.5625 C8.05347656 6.38878906 8.04445312 7.21507812 8.03515625 8.06640625 C8.02355469 8.70449219 8.01195312 9.34257812 8 10 C6 9 4 8 2 7 C2 7.99 2 8.98 2 10 C1.34 10 0.68 10 0 10 C0 6.7 0 3.4 0 0 Z " fill="#585858" transform="translate(243,244)"/>
<path d="M0 0 C0.99 0 1.98 0 3 0 C3.67154933 1.28913487 4.33708859 2.58140204 5 3.875 C5.37125 4.59429687 5.7425 5.31359375 6.125 6.0546875 C7 8 7 8 7 10 C6.01 10 5.02 10 4 10 C4 9.34 4 8.68 4 8 C1.36 8.66 -1.28 9.32 -4 10 C-2.8905928 6.51329166 -1.73662334 3.22515763 0 0 Z " fill="#2E2E2E" transform="translate(261,244)"/>
<path d="M0 0 C4 2 4 2 6 4 C6.33 2.68 6.66 1.36 7 0 C7.66 0 8.32 0 9 0 C9 3.3 9 6.6 9 10 C5 8 5 8 3 5 C2.67 6.65 2.34 8.3 2 10 C1.34 10 0.68 10 0 10 C0 6.7 0 3.4 0 0 Z " fill="#080808" transform="translate(284,244)"/>
<path d="M0 0 C2.5 0.25 2.5 0.25 4.5 2.25 C4.5 3.24 4.5 4.23 4.5 5.25 C2.52 5.58 0.54 5.91 -1.5 6.25 C0.15 6.58 1.8 6.91 3.5 7.25 C3.17 7.91 2.84 8.57 2.5 9.25 C0.125 9.375 0.125 9.375 -2.5 9.25 C-4.5 7.25 -4.5 7.25 -4.75 4.75 C-4.40058445 1.25584452 -3.49415548 0.34941555 0 0 Z " fill="#101010" transform="translate(254.5,329.75)"/>
<path d="M0 0 C2.875 -0.125 2.875 -0.125 6 0 C8 2 8 2 8.125 5.625 C8.08375 6.73875 8.0425 7.8525 8 9 C5.69 9 3.38 9 1 9 C0.67 7.35 0.34 5.7 0 4 C1.98 4 3.96 4 6 4 C6 3.34 6 2.68 6 2 C4.02 2 2.04 2 0 2 C0 1.34 0 0.68 0 0 Z " fill="#181818" transform="translate(240,330)"/>
<path d="M0 0 C0.66 0 1.32 0 2 0 C2.33 2.31 2.66 4.62 3 7 C3.99 7 4.98 7 6 7 C6.33 4.69 6.66 2.38 7 0 C7.66 0 8.32 0 9 0 C9.1953125 6.0546875 9.1953125 6.0546875 9 8 C7 10 7 10 4.5 10.25 C2 10 2 10 0 8 C-0.26991906 5.31160615 -0.08737357 2.70858064 0 0 Z " fill="#0C0C0C" transform="translate(226,244)"/>
<path d="M0 0 C1.65 0.33 3.3 0.66 5 1 C4.67 2.65 4.34 4.3 4 6 C2.35 5.67 0.7 5.34 -1 5 C-0.67 3.35 -0.34 1.7 0 0 Z " fill="#ECECEC" transform="translate(212,246)"/>
<path d="M0 0 C0.99 0 1.98 0 3 0 C3 3.3 3 6.6 3 10 C2.01 10 1.02 10 0 10 C0 6.7 0 3.4 0 0 Z " fill="#373737" transform="translate(274,244)"/>
<path d="M0 0 C0.99 0.33 1.98 0.66 3 1 C3.33 1.99 3.66 2.98 4 4 C6.31 4 8.62 4 11 4 C10.01 5.485 10.01 5.485 9 7 C5.80420369 7.407974 3.85022579 7.56681719 1.125 5.75 C0 4 0 4 0 0 Z " fill="#272727" transform="translate(208,247)"/>
<path d="M0 0 C2.31 0 4.62 0 7 0 C7 0.33 7 0.66 7 1 C5.35 1 3.7 1 2 1 C2 2.65 2 4.3 2 6 C2.66 6.33 3.32 6.66 4 7 C3.34 7 2.68 7 2 7 C2 7.99 2 8.98 2 10 C1.34 10 0.68 10 0 10 C0 6.7 0 3.4 0 0 Z " fill="#040404" transform="translate(243,244)"/>
<path d="M0 0 C0.66 0 1.32 0 2 0 C2 3.3 2 6.6 2 10 C1.01 10 0.02 10 -1 10 C-1.33 8.68 -1.66 7.36 -2 6 C-1.34 6 -0.68 6 0 6 C0 4.02 0 2.04 0 0 Z " fill="#1E1E1E" transform="translate(200,244)"/>
<path d="M0 0 C2.97 0.495 2.97 0.495 6 1 C5.67 2.32 5.34 3.64 5 5 C3.35 4.67 1.7 4.34 0 4 C0 2.68 0 1.36 0 0 Z " fill="#626262" transform="translate(240,334)"/>
<path d="M0 0 C1.65 0 3.3 0 5 0 C5.33 0.66 5.66 1.32 6 2 C5.67 2.66 5.34 3.32 5 4 C3.35 4 1.7 4 0 4 C0 2.68 0 1.36 0 0 Z " fill="#6B6B6B" transform="translate(252,330)"/>
</svg>
